<mxfile host="app.diagrams.net" agent="Mozilla/5.0 (Windows NT 10.0; Win64; x64) AppleWebKit/537.36 (KHTML, like Gecko) Chrome/134.0.0.0 Safari/537.36 Edg/134.0.0.0" version="26.1.1">
  <diagram name="第 1 页" id="nga0grpjcA7scMFjlnpN">
    <mxGraphModel dx="1213" dy="815" grid="1" gridSize="10" guides="1" tooltips="1" connect="1" arrows="1" fold="1" page="1" pageScale="1" pageWidth="827" pageHeight="1169" math="0" shadow="0">
      <root>
        <mxCell id="0" />
        <mxCell id="1" parent="0" />
        <mxCell id="3LHnEJWic2SV4aYACTmM-2" value="" style="rounded=1;arcSize=5;whiteSpace=wrap;html=1;fillColor=#d5e8d4;strokeColor=light-dark(#548235, #ededed);" vertex="1" parent="1">
          <mxGeometry x="240" y="160" width="110" height="40" as="geometry" />
        </mxCell>
        <mxCell id="3LHnEJWic2SV4aYACTmM-3" value="&lt;font style=&quot;font-size: 15px;&quot; face=&quot;Times New Roman&quot;&gt;任务分解&lt;/font&gt;" style="text;html=1;align=center;verticalAlign=middle;resizable=0;points=[];autosize=1;strokeColor=none;fillColor=none;fontColor=light-dark(#548235, #69c195);fontStyle=1" vertex="1" parent="1">
          <mxGeometry x="255" y="165" width="80" height="30" as="geometry" />
        </mxCell>
        <mxCell id="3LHnEJWic2SV4aYACTmM-4" value="" style="rounded=1;arcSize=5;whiteSpace=wrap;html=1;fillColor=#fff2cc;strokeColor=#d6b656;" vertex="1" parent="1">
          <mxGeometry x="462.5" y="300" width="110" height="40" as="geometry" />
        </mxCell>
        <mxCell id="3LHnEJWic2SV4aYACTmM-5" value="&lt;font face=&quot;Times New Roman&quot;&gt;&lt;span style=&quot;font-size: 15px;&quot;&gt;动作映射&lt;/span&gt;&lt;/font&gt;" style="text;html=1;align=center;verticalAlign=middle;resizable=0;points=[];autosize=1;strokeColor=none;fillColor=none;fontColor=light-dark(#7f6105, #69c195);fontStyle=1" vertex="1" parent="1">
          <mxGeometry x="477.5" y="305" width="80" height="30" as="geometry" />
        </mxCell>
        <mxCell id="3LHnEJWic2SV4aYACTmM-6" style="edgeStyle=orthogonalEdgeStyle;rounded=1;orthogonalLoop=1;jettySize=auto;html=1;fillColor=#1ba1e2;strokeColor=light-dark(#548235, #ededed);curved=0;textShadow=1;" edge="1" parent="1">
          <mxGeometry relative="1" as="geometry">
            <mxPoint x="370" y="179.49999999999994" as="sourcePoint" />
            <mxPoint x="420" y="179.49999999999994" as="targetPoint" />
          </mxGeometry>
        </mxCell>
        <mxCell id="3LHnEJWic2SV4aYACTmM-9" value="&lt;div&gt;&lt;div style=&quot;color: rgb(0, 0, 0); line-height: 12px;&quot;&gt;&lt;font face=&quot;Times New Roman&quot;&gt;&amp;nbsp; &amp;nbsp; Step1:walk to computer&lt;/font&gt;&lt;/div&gt;&lt;div style=&quot;color: rgb(0, 0, 0); line-height: 12px;&quot;&gt;&lt;font face=&quot;Times New Roman&quot;&gt;&amp;nbsp; &amp;nbsp; Step2:turn on computer&lt;/font&gt;&lt;/div&gt;&lt;div style=&quot;line-height: 12px;&quot;&gt;&lt;font style=&quot;color: rgb(255, 0, 0);&quot; face=&quot;Times New Roman&quot;&gt;&amp;nbsp; &amp;nbsp; &lt;/font&gt;&lt;font style=&quot;color: rgb(255, 0, 0);&quot; face=&quot;Times New Roman&quot;&gt;Step3:take a seat&lt;/font&gt;&lt;/div&gt;&lt;/div&gt;" style="strokeWidth=1;html=1;shape=mxgraph.flowchart.multi-document;whiteSpace=wrap;align=left;fillColor=light-dark(#e7e6e6, #ededed);" vertex="1" parent="1">
          <mxGeometry x="431" y="137" width="164" height="86" as="geometry" />
        </mxCell>
        <mxCell id="3LHnEJWic2SV4aYACTmM-10" style="edgeStyle=orthogonalEdgeStyle;rounded=1;orthogonalLoop=1;jettySize=auto;html=1;fillColor=#1ba1e2;strokeColor=light-dark(#548235, #ededed);curved=0;textShadow=1;endSize=6;" edge="1" parent="1">
          <mxGeometry relative="1" as="geometry">
            <mxPoint x="517" y="240" as="sourcePoint" />
            <mxPoint x="517" y="282" as="targetPoint" />
          </mxGeometry>
        </mxCell>
        <mxCell id="3LHnEJWic2SV4aYACTmM-11" value="&lt;div&gt;&lt;div style=&quot;color: rgb(0, 0, 0); line-height: 12px;&quot;&gt;&lt;font face=&quot;Times New Roman&quot;&gt;&amp;nbsp; &amp;nbsp; Step1:walk to computer&lt;/font&gt;&lt;/div&gt;&lt;div style=&quot;color: rgb(0, 0, 0); line-height: 12px;&quot;&gt;&lt;font face=&quot;Times New Roman&quot;&gt;&amp;nbsp; &amp;nbsp; Step2:turn on computer&lt;/font&gt;&lt;/div&gt;&lt;div style=&quot;line-height: 12px;&quot;&gt;&lt;font style=&quot;color: rgb(255, 0, 0);&quot; face=&quot;Times New Roman&quot;&gt;&amp;nbsp; &amp;nbsp; &lt;/font&gt;&lt;font style=&quot;color: rgb(77, 153, 0);&quot; face=&quot;Times New Roman&quot;&gt;Step3:sit on the chair&lt;/font&gt;&lt;/div&gt;&lt;/div&gt;" style="strokeWidth=1;html=1;shape=mxgraph.flowchart.multi-document;whiteSpace=wrap;align=left;fillColor=light-dark(#e7e6e6, #ededed);" vertex="1" parent="1">
          <mxGeometry x="213" y="277" width="164" height="86" as="geometry" />
        </mxCell>
        <mxCell id="3LHnEJWic2SV4aYACTmM-12" style="edgeStyle=orthogonalEdgeStyle;rounded=1;orthogonalLoop=1;jettySize=auto;html=1;fillColor=#ffe6cc;strokeColor=#d79b00;curved=0;textShadow=1;" edge="1" parent="1">
          <mxGeometry relative="1" as="geometry">
            <mxPoint x="453.88" y="319.5" as="sourcePoint" />
            <mxPoint x="394" y="319.4996551724139" as="targetPoint" />
          </mxGeometry>
        </mxCell>
        <mxCell id="3LHnEJWic2SV4aYACTmM-13" style="edgeStyle=orthogonalEdgeStyle;rounded=1;orthogonalLoop=1;jettySize=auto;html=1;fillColor=#ffe6cc;strokeColor=#d79b00;curved=0;textShadow=1;endSize=6;" edge="1" parent="1">
          <mxGeometry relative="1" as="geometry">
            <mxPoint x="294.4996551724139" y="265" as="sourcePoint" />
            <mxPoint x="294.4996551724139" y="223" as="targetPoint" />
          </mxGeometry>
        </mxCell>
      </root>
    </mxGraphModel>
  </diagram>
</mxfile>
